<?xml version="1.0" encoding="utf-8"?>
<!-- Generator: Adobe Illustrator 16.0.0, SVG Export Plug-In . SVG Version: 6.00 Build 0)  -->
<!DOCTYPE svg PUBLIC "-//W3C//DTD SVG 1.1//EN" "http://www.w3.org/Graphics/SVG/1.1/DTD/svg11.dtd">
<svg version="1.1" id="Layer_1" xmlns="http://www.w3.org/2000/svg" xmlns:xlink="http://www.w3.org/1999/xlink" x="0px" y="0px"
	 width="138px" height="68px" viewBox="0 0 138 68" enable-background="new 0 0 138 68" xml:space="preserve">
<g>
	<linearGradient id="SVGID_1_" gradientUnits="userSpaceOnUse" x1="47.1689" y1="9.6348" x2="47.1689" y2="56.9927">
		<stop  offset="0" style="stop-color:#72D51C"/>
		<stop  offset="0.4233" style="stop-color:#5DAA1A"/>
		<stop  offset="0.7899" style="stop-color:#4E8B19"/>
		<stop  offset="0.9944" style="stop-color:#487F19"/>
	</linearGradient>
	<path fill="url(#SVGID_1_)" d="M60.119,24.099c0-7.865-5.797-14.464-12.95-14.464s-12.95,6.754-12.95,14.619
		c0,6.152,3.554,11.747,8.522,13.747h-0.045l4.364,18.992L51.424,38h-0.04C56.464,36,60.119,30.338,60.119,24.099z"/>
	<g>
		<path fill="#D1D1D1" d="M65.119,24.249C64.483,10.365,50.266-1.111,37.404,7.98c-11.799,8.34-10.478,28.509,2.813,34.637
			c0.841-3.105,1.682-6.212,2.523-9.317c-0.015,0-0.03,0-0.045,0c-3.356,0-5.545,3.181-4.821,6.329
			c1.455,6.331,2.909,12.661,4.364,18.992c1.1,4.785,8.543,4.785,9.643,0c1.455-6.331,2.91-12.661,4.364-18.992
			c0.724-3.148-1.465-6.329-4.821-6.329c-0.013,0-0.026,0-0.04,0c0.841,3.105,1.683,6.212,2.523,9.317
			C61.153,39.381,64.779,31.874,65.119,24.249c0.288-6.45-9.713-6.422-10,0c-0.196,4.403-2.19,7.916-6.258,9.733
			c-4.726,2.111-2.137,9.317,2.523,9.317c0.013,0,0.026,0,0.04,0c-1.607-2.109-3.214-4.22-4.821-6.329
			c-1.455,6.331-2.91,12.661-4.364,18.992c3.214,0,6.428,0,9.643,0c-1.455-6.331-2.909-12.661-4.364-18.992
			c-1.607,2.109-3.214,4.22-4.821,6.329c0.015,0,0.03,0,0.045,0c4.69,0,7.208-7.157,2.523-9.317
			c-6.853-3.16-7.837-11.998-2.798-17.286c5.7-5.98,12.383,1.672,12.652,7.552C55.413,30.67,65.415,30.699,65.119,24.249z"/>
	</g>
</g>
<g>
	<linearGradient id="SVGID_2_" gradientUnits="userSpaceOnUse" x1="16.4331" y1="0.0737" x2="16.4331" y2="38.394">
		<stop  offset="0" style="stop-color:#83E5F9"/>
		<stop  offset="0.1151" style="stop-color:#71D8F2"/>
		<stop  offset="0.3345" style="stop-color:#55C5E7"/>
		<stop  offset="0.555" style="stop-color:#41B6DF"/>
		<stop  offset="0.775" style="stop-color:#35AEDB"/>
		<stop  offset="0.9944" style="stop-color:#31ABD9"/>
	</linearGradient>
	<path fill="url(#SVGID_2_)" d="M8.332,0.074v15.351h16.204V0.074h6.993v38.32h-6.993V21.508H8.332v16.886H1.338V0.074H8.332z"/>
	<linearGradient id="SVGID_3_" gradientUnits="userSpaceOnUse" x1="83.0996" y1="10.0801" x2="83.0996" y2="38.394">
		<stop  offset="0" style="stop-color:#83E5F9"/>
		<stop  offset="0.1151" style="stop-color:#71D8F2"/>
		<stop  offset="0.3345" style="stop-color:#55C5E7"/>
		<stop  offset="0.555" style="stop-color:#41B6DF"/>
		<stop  offset="0.775" style="stop-color:#35AEDB"/>
		<stop  offset="0.9944" style="stop-color:#31ABD9"/>
	</linearGradient>
	<path fill="url(#SVGID_3_)" d="M62.803,18.949c0-3.184-0.057-5.856-0.228-8.244h6.026l0.285,4.093h0.17
		c1.364-2.16,3.866-4.719,8.528-4.719c3.639,0,6.481,2.047,7.675,5.117h0.114c0.966-1.535,2.104-2.672,3.411-3.468
		c1.535-1.081,3.298-1.649,5.571-1.649c4.605,0,9.268,3.127,9.268,11.996v16.317h-6.822V23.1c0-4.605-1.592-7.334-4.946-7.334
		c-2.388,0-4.15,1.706-4.89,3.695c-0.171,0.683-0.341,1.535-0.341,2.331v16.602h-6.823V22.361c0-3.866-1.535-6.595-4.775-6.595
		c-2.615,0-4.378,2.047-5.003,3.979c-0.285,0.683-0.398,1.479-0.398,2.274v16.374h-6.822V18.949z"/>
	<linearGradient id="SVGID_4_" gradientUnits="userSpaceOnUse" x1="117.4443" y1="10.0801" x2="117.4443" y2="39.019">
		<stop  offset="0" style="stop-color:#83E5F9"/>
		<stop  offset="0.1151" style="stop-color:#71D8F2"/>
		<stop  offset="0.3345" style="stop-color:#55C5E7"/>
		<stop  offset="0.555" style="stop-color:#41B6DF"/>
		<stop  offset="0.775" style="stop-color:#35AEDB"/>
		<stop  offset="0.9944" style="stop-color:#31ABD9"/>
	</linearGradient>
	<path fill="url(#SVGID_4_)" d="M111.417,26.511c0.171,5.003,4.094,7.164,8.528,7.164c3.241,0,5.572-0.455,7.676-1.251l1.023,4.833
		c-2.388,0.966-5.686,1.762-9.665,1.762c-8.983,0-14.271-5.571-14.271-14.042c0-7.675,4.662-14.896,13.531-14.896
		c9.039,0,11.939,7.391,11.939,13.475c0,1.308-0.114,2.331-0.228,2.957H111.417z M123.584,21.622
		c0.057-2.559-1.08-6.766-5.742-6.766c-4.32,0-6.14,3.923-6.425,6.766H123.584z"/>
</g>
<g>
	<path fill="#4DA413" d="M60.007,42.735c0.094-0.031,0.358-0.117,0.794-0.257c0.436-0.141,0.794-0.164,1.075-0.07
		c0.903-0.031,1.596,0.203,2.079,0.701c0.482,0.498,0.521,1.464,0.117,2.896c-0.592,1.589-1.378,2.913-2.359,3.972
		c-0.981,1.06-2.142,2.071-3.481,3.037c0.311,0.811,0.778,1.262,1.402,1.354c0.623,0.094,1.277-0.007,1.962-0.304
		c0.685-0.296,1.355-0.692,2.009-1.191c0.654-0.498,1.184-0.935,1.589-1.308c0.654-0.562,1.175-1.036,1.565-1.426
		c0.389-0.389,0.802-0.864,1.238-1.425c0.094-0.063,0.147-0.054,0.164,0.023c0.016,0.078,0.007,0.194-0.023,0.351
		c-0.031,0.156-0.078,0.373-0.14,0.654c-0.093,0.218-0.187,0.413-0.28,0.584c-0.093,0.171-0.226,0.358-0.397,0.561
		c-0.172,0.203-0.397,0.443-0.678,0.724s-0.624,0.654-1.028,1.122c-0.467,0.437-0.919,0.864-1.355,1.284
		c-0.437,0.421-0.896,0.787-1.378,1.099c-0.483,0.312-1.013,0.53-1.588,0.654c-0.577,0.124-1.238,0.124-1.986,0
		c-0.624-0.218-1.122-0.451-1.495-0.701c-0.374-0.249-0.662-0.506-0.865-0.771c-0.203-0.264-0.35-0.506-0.444-0.724
		c-0.093-0.218-0.156-0.404-0.187-0.561c-0.156-0.623-0.218-1.464-0.187-2.523c0.031-1.059,0.342-2.43,0.935-4.111
		c0.404-0.872,0.841-1.612,1.308-2.22S59.383,43.078,60.007,42.735z M57.951,51.005c0.404-0.217,0.879-0.521,1.425-0.911
		c0.545-0.389,1.059-0.841,1.542-1.354c0.482-0.514,0.903-1.082,1.262-1.705c0.357-0.623,0.553-1.277,0.584-1.963
		c0.093-0.467,0.077-0.794-0.047-0.981c-0.063-0.093-0.125-0.14-0.187-0.14c-0.53-0.249-1.059-0.171-1.588,0.233
		c-0.53,0.405-1.013,0.981-1.448,1.729c-0.437,0.748-0.803,1.582-1.098,2.5C58.099,49.331,57.951,50.195,57.951,51.005z"/>
	<path fill="#4DA413" d="M72.622,41.24c0.779,0.125,1.426,0.296,1.939,0.514c0.514,0.219,0.918,0.46,1.215,0.725
		c0.295,0.265,0.529,0.537,0.701,0.817c0.17,0.28,0.334,0.545,0.49,0.794c-0.031,0.125-0.18,0.109-0.443-0.047
		c-0.266-0.155-0.521-0.311-0.771-0.467c-0.686-0.436-1.512-0.701-2.477-0.794c-0.965-0.094-1.861-0.039-2.686,0.163
		c-0.827,0.203-1.489,0.554-1.986,1.052c-0.499,0.498-0.624,1.105-0.374,1.822c0.249,0.717,0.693,1.339,1.332,1.868
		c0.638,0.53,1.347,1.005,2.126,1.426c0.777,0.42,1.557,0.802,2.336,1.145c0.777,0.343,1.416,0.686,1.916,1.027
		c0.623-0.342,1.152-0.63,1.588-0.864c0.436-0.233,0.826-0.451,1.168-0.654c0.344-0.202,0.693-0.389,1.051-0.561
		c0.359-0.171,0.771-0.365,1.238-0.584c0.063-0.03,0.117-0.047,0.164-0.047s0.047,0.04,0,0.117
		c-0.047,0.078-0.172,0.203-0.373,0.374c-0.203,0.171-0.523,0.413-0.959,0.724c-0.217,0.156-0.623,0.421-1.215,0.795
		s-1.23,0.778-1.914,1.215c0.373,0.343,0.668,0.7,0.887,1.074c0.188,0.344,0.318,0.709,0.396,1.099s0.008,0.786-0.209,1.191
		c-0.623,0.996-1.324,1.775-2.104,2.336s-1.494,0.95-2.148,1.168c-0.438,0.155-0.92,0.171-1.449,0.047
		c-0.529-0.125-0.951-0.374-1.262-0.748c-0.343-0.498-0.429-1.004-0.256-1.519c0.17-0.514,0.459-1.012,0.863-1.495
		c0.404-0.482,0.873-0.941,1.402-1.378c0.529-0.436,0.996-0.825,1.402-1.168c-0.281-0.312-0.826-0.693-1.637-1.145
		s-1.643-0.95-2.499-1.496c-0.857-0.544-1.628-1.128-2.313-1.752c-0.685-0.622-1.059-1.245-1.121-1.869
		c-0.125-0.685-0.039-1.347,0.257-1.985c0.296-0.638,0.731-1.198,1.308-1.682c0.576-0.483,1.246-0.842,2.01-1.075
		C70.979,41.17,71.782,41.116,72.622,41.24z M72.202,57.267c0.342,0.155,0.73,0.155,1.168,0c0.436-0.156,0.848-0.382,1.238-0.678
		c0.389-0.297,0.73-0.624,1.027-0.981s0.49-0.678,0.584-0.958c0.094-0.249,0.008-0.521-0.256-0.817
		c-0.266-0.296-0.537-0.537-0.818-0.725c-0.344,0.25-0.732,0.569-1.168,0.958c-0.438,0.39-0.818,0.787-1.145,1.191
		c-0.328,0.405-0.568,0.795-0.725,1.168C71.952,56.799,71.983,57.079,72.202,57.267z"/>
	<path fill="#4DA413" d="M87.714,42.268c0.031,0.188-0.116,0.374-0.443,0.561c-0.327,0.188-0.74,0.46-1.238,0.818
		c-0.499,0.358-1.044,0.833-1.636,1.425s-1.121,1.371-1.589,2.336c-0.498,1.06-0.856,1.979-1.074,2.757
		c-0.219,0.779-0.172,1.698,0.141,2.757c0.093,0.219,0.226,0.413,0.396,0.584c0.171,0.172,0.428,0.273,0.771,0.304
		c0.685-0.124,1.292-0.296,1.822-0.514c0.529-0.218,1.027-0.482,1.495-0.795c0.467-0.311,0.918-0.646,1.354-1.004
		c0.436-0.358,0.888-0.725,1.355-1.099c0.685-0.653,1.253-1.222,1.705-1.705c0.451-0.482,0.817-0.888,1.098-1.215
		s0.521-0.568,0.725-0.725c0.202-0.155,0.412-0.202,0.631-0.14c-0.125,0.28-0.476,0.872-1.052,1.775
		c-0.576,0.904-1.324,1.861-2.242,2.874c-0.919,1.012-1.986,1.962-3.201,2.85s-2.522,1.441-3.925,1.659
		c-0.561-0.031-1.021-0.094-1.378-0.188c-0.358-0.093-0.693-0.467-1.005-1.121c-0.373-0.778-0.514-1.721-0.42-2.827
		c0.093-1.105,0.327-2.203,0.7-3.294c0.374-1.09,0.842-2.103,1.402-3.037s1.105-1.619,1.635-2.056
		c0.748-0.529,1.44-0.856,2.079-0.981C86.46,42.144,87.091,42.144,87.714,42.268z"/>
	<path fill="#4DA413" d="M100.049,42.221c-0.031,0.188-0.102,0.577-0.21,1.169c-0.109,0.592-0.227,1.284-0.351,2.079
		c-0.125,0.794-0.233,1.628-0.327,2.499c-0.094,0.873-0.148,1.698-0.163,2.477c-0.017,0.779,0.03,1.441,0.14,1.986
		c0.108,0.545,0.288,0.88,0.537,1.004c0.717,0.344,1.449,0.227,2.196-0.35c0.748-0.576,1.619-1.456,2.616-2.641
		c0.094,0,0.102,0.125,0.023,0.374c-0.078,0.25-0.203,0.522-0.373,0.817c-0.172,0.297-0.344,0.593-0.515,0.888
		c-0.171,0.297-0.304,0.491-0.396,0.584c-0.25,0.313-0.607,0.662-1.075,1.052c-0.467,0.39-0.966,0.701-1.495,0.935
		c-0.53,0.233-1.036,0.335-1.519,0.304c-0.483-0.031-0.881-0.312-1.191-0.841c-0.156-0.374-0.25-0.833-0.28-1.379
		c-0.031-0.544-0.031-1.098,0-1.658c0.03-0.561,0.077-1.075,0.14-1.542c0.063-0.468,0.109-0.81,0.141-1.028
		c-0.654,1.215-1.401,2.368-2.243,3.458c-0.841,1.091-1.666,1.947-2.476,2.569c-0.811,0.624-1.559,0.958-2.243,1.005
		c-0.686,0.047-1.215-0.351-1.589-1.191c-0.217-0.81-0.217-1.721,0-2.733c0.219-1.012,0.546-1.923,0.981-2.733
		c0.654-1.121,1.339-2.149,2.056-3.084s1.479-1.729,2.29-2.383c0.81-0.654,1.658-1.129,2.546-1.425S99.083,42.065,100.049,42.221z
		 M91.265,54.089c0.312,0.063,0.81-0.171,1.495-0.7c0.685-0.529,1.402-1.27,2.149-2.22c0.748-0.95,1.425-2.056,2.032-3.317
		s1.005-2.594,1.191-3.995c-0.124,0-0.304,0-0.537,0s-0.507,0.094-0.817,0.28c-1.185,0.779-2.196,1.69-3.037,2.733
		c-0.841,1.044-1.495,2.056-1.963,3.037c-0.467,0.981-0.747,1.861-0.841,2.64C90.845,53.326,90.953,53.84,91.265,54.089z"/>
	<path fill="#4DA413" d="M114.626,43.155c0.124,0.063,0.272,0.141,0.443,0.234c0.171,0.093,0.335,0.233,0.491,0.42
		c0.155,0.188,0.287,0.429,0.396,0.725s0.164,0.678,0.164,1.145c-0.063,1.62-0.468,3.084-1.215,4.392
		c-0.748,1.309-1.644,2.415-2.687,3.318c-1.044,0.903-2.126,1.573-3.247,2.009c-1.122,0.437-2.072,0.591-2.851,0.467
		c0,3.021,0.023,5.544,0.07,7.569c0.047,2.024,0.077,3.684,0.093,4.977c0.016,1.292,0.016,2.266,0,2.92s-0.063,1.105-0.14,1.355
		c-0.078,0.249-0.219,0.365-0.421,0.35c-0.203-0.016-0.46-0.055-0.771-0.116c-0.063,0.094-0.109,0.016-0.141-0.233
		c-0.031-0.219-0.055-0.607-0.069-1.168c-0.017-0.562-0.023-1.434-0.023-2.617c0-0.094-0.009-0.631-0.023-1.612
		c-0.017-0.98-0.031-2.212-0.047-3.69c-0.017-1.48-0.047-3.107-0.094-4.883s-0.102-3.505-0.163-5.187
		c-0.063-1.682-0.133-3.239-0.211-4.672s-0.18-2.539-0.304-3.318c0-0.062-0.016-0.217-0.046-0.467
		c-0.032-0.249-0.07-0.561-0.117-0.935s-0.108-0.778-0.187-1.215c-0.078-0.436-0.164-0.856-0.258-1.262
		c0.529-0.03,0.888,0.023,1.075,0.164c0.187,0.14,0.374,0.304,0.561,0.49c0.187,0.592,0.366,1.542,0.537,2.851
		c0.171,1.308,0.366,3.084,0.584,5.326c0.063-0.311,0.226-0.747,0.491-1.309c0.264-0.561,0.614-1.159,1.051-1.799
		c0.436-0.638,0.935-1.269,1.495-1.892s1.152-1.152,1.775-1.589c0.623-0.436,1.254-0.739,1.893-0.911
		C113.371,42.821,114.002,42.875,114.626,43.155z M108.738,53.669c1.433-0.592,2.563-1.355,3.388-2.29s1.425-1.86,1.799-2.78
		c0.374-0.918,0.561-1.735,0.561-2.453c0-0.716-0.14-1.168-0.42-1.354c-0.624-0.404-1.215-0.451-1.775-0.141
		c-0.562,0.313-1.106,0.686-1.636,1.122c-0.28,0.249-0.67,0.693-1.168,1.331c-0.499,0.639-0.997,1.348-1.495,2.126
		c-0.499,0.779-0.928,1.565-1.285,2.359c-0.358,0.795-0.537,1.488-0.537,2.08c0.124,0.156,0.311,0.265,0.561,0.326
		c0.187,0.063,0.443,0.078,0.771,0.047C107.827,54.012,108.24,53.887,108.738,53.669z"/>
	<path fill="#4DA413" d="M121.308,42.735c0.094-0.031,0.357-0.117,0.794-0.257c0.437-0.141,0.795-0.164,1.075-0.07
		c0.903-0.031,1.596,0.203,2.079,0.701c0.482,0.498,0.521,1.464,0.117,2.896c-0.593,1.589-1.379,2.913-2.36,3.972
		c-0.98,1.06-2.142,2.071-3.48,3.037c0.311,0.811,0.778,1.262,1.401,1.354c0.623,0.094,1.277-0.007,1.963-0.304
		c0.685-0.296,1.354-0.692,2.009-1.191c0.654-0.498,1.184-0.935,1.589-1.308c0.654-0.562,1.176-1.036,1.565-1.426
		c0.389-0.389,0.802-0.864,1.238-1.425c0.093-0.063,0.147-0.054,0.163,0.023c0.016,0.078,0.008,0.194-0.023,0.351
		s-0.078,0.373-0.14,0.654c-0.094,0.218-0.188,0.413-0.28,0.584c-0.094,0.171-0.227,0.358-0.397,0.561
		c-0.172,0.203-0.397,0.443-0.678,0.724s-0.623,0.654-1.027,1.122c-0.468,0.437-0.92,0.864-1.355,1.284
		c-0.437,0.421-0.896,0.787-1.378,1.099c-0.483,0.312-1.013,0.53-1.589,0.654c-0.577,0.124-1.238,0.124-1.986,0
		c-0.623-0.218-1.121-0.451-1.495-0.701c-0.373-0.249-0.662-0.506-0.864-0.771c-0.203-0.264-0.351-0.506-0.443-0.724
		c-0.094-0.218-0.156-0.404-0.188-0.561c-0.156-0.623-0.218-1.464-0.187-2.523c0.03-1.059,0.343-2.43,0.935-4.111
		c0.404-0.872,0.841-1.612,1.308-2.22C120.14,43.553,120.685,43.078,121.308,42.735z M119.252,51.005
		c0.404-0.217,0.88-0.521,1.425-0.911c0.545-0.389,1.059-0.841,1.542-1.354c0.482-0.514,0.903-1.082,1.262-1.705
		c0.357-0.623,0.553-1.277,0.584-1.963c0.094-0.467,0.077-0.794-0.047-0.981c-0.063-0.093-0.125-0.14-0.187-0.14
		c-0.53-0.249-1.06-0.171-1.589,0.233c-0.53,0.405-1.013,0.981-1.448,1.729c-0.437,0.748-0.803,1.582-1.099,2.5
		C119.399,49.331,119.252,50.195,119.252,51.005z"/>
</g>
<g>
	<linearGradient id="SVGID_5_" gradientUnits="userSpaceOnUse" x1="47.125" y1="7.21" x2="47.125" y2="59.7905">
		<stop  offset="0" style="stop-color:#72D51C"/>
		<stop  offset="0.4233" style="stop-color:#5DAA1A"/>
		<stop  offset="0.7899" style="stop-color:#4E8B19"/>
		<stop  offset="0.9944" style="stop-color:#487F19"/>
	</linearGradient>
	<path fill="url(#SVGID_5_)" d="M47,59.79c-0.687,0-1.286-0.467-1.454-1.133L40.73,39.597c-5.896-2.483-9.943-8.741-9.943-15.537
		c0-9.133,7.482-16.85,16.338-16.85c9.009,0,16.338,7.469,16.338,16.649c0,6.801-4.239,13.274-10.195,15.746l-4.813,19.052
		C48.286,59.323,47.687,59.79,47,59.79z"/>
	<path fill="#FFFFFF" d="M47.125,8.71c8.195,0,14.838,7.205,14.838,15.399C61.963,30.611,57.775,37,51.955,39H52l-5,19.79L42,39
		h0.052c-5.693-2-9.765-8.28-9.765-14.69C32.287,16.115,38.93,8.71,47.125,8.71 M47.125,5.71c-9.669,0-17.838,8.403-17.838,18.35
		c0,7.122,4.105,13.708,10.166,16.607l4.638,18.358c0.336,1.331,1.535,2.265,2.909,2.265s2.572-0.934,2.909-2.265l4.635-18.346
		c6.126-2.901,10.419-9.7,10.419-16.82C64.963,13.852,56.961,5.71,47.125,5.71L47.125,5.71z"/>
</g>
<path fill="#FFFFFF" d="M44.612,34.029l0.041-6.261c0,0-0.088-1.022,0.912-1.029c2.107-0.014,3.261,0,3.261,0s0.783,0,0.769,0.705
	C49.571,28.612,49.637,34,49.637,34h3.901c0,0,1.114,0.095,1.091-1.386c-0.023-1.483,0-6.793,0-6.793s1.115-0.014,1.486,0.003
	c0.76,0.038,1.88-0.966,0.629-2.162c-0.946-0.905-2.452-2.277-2.452-2.277s0.027-3.573,0-4.67c-0.043-1.737-3.289-1.665-3.303-0.284
	c-0.013,1.226,0.057,1.225,0.057,1.225l-3.36-3.41c0,0-0.569-0.419-1.025,0s-7.115,6.986-9.258,9.294
	c-1.279,1.377-0.424,2.303,0.743,2.289c1.937-0.023,1.396,0,1.396,0l0.085,6.977c0,0-0.114,1.137,1.224,1.224
	C42.19,34.117,44.612,34.029,44.612,34.029z"/>
<g>
	<path fill="#1686B2" d="M130.894,13.766v-1.263h-0.472v-0.169h1.135v0.169h-0.474v1.263H130.894z"/>
	<path fill="#1686B2" d="M131.745,13.766v-1.432h0.285l0.339,1.014c0.031,0.094,0.054,0.165,0.068,0.212
		c0.017-0.052,0.042-0.128,0.076-0.229l0.343-0.996h0.255v1.432h-0.183v-1.198l-0.416,1.198h-0.171l-0.414-1.219v1.219H131.745z"/>
</g>
<circle fill="none" stroke="#1686B2" stroke-width="0.3" stroke-miterlimit="10" cx="131.875" cy="13.08" r="2.125"/>
</svg>
